<?xml version="1.0" encoding="UTF-8" standalone="no"?>
<!-- Created with Inkscape (http://www.inkscape.org/) -->
<svg
   xmlns:svg="http://www.w3.org/2000/svg"
   xmlns="http://www.w3.org/2000/svg"
   xmlns:xlink="http://www.w3.org/1999/xlink"
   version="1.0"
   width="250"
   height="120"
   id="svg2">
  <defs
     id="defs4">
    <linearGradient
       id="linearGradient3183">
      <stop
         style="stop-color:#ffc614;stop-opacity:1"
         offset="0"
         id="stop3185" />
      <stop
         style="stop-color:#ff0000;stop-opacity:1"
         offset="1"
         id="stop3187" />
    </linearGradient>
    <linearGradient
       x1="12.451879"
       y1="53.867496"
       x2="54.21307"
       y2="53.867496"
       id="linearGradient3189"
       xlink:href="#linearGradient3183"
       gradientUnits="userSpaceOnUse" />
    <linearGradient
       x1="50.502285"
       y1="53.40884"
       x2="86.401482"
       y2="53.40884"
       id="linearGradient3213"
       xlink:href="#linearGradient3183"
       gradientUnits="userSpaceOnUse" />
    <linearGradient
       x1="86.806145"
       y1="58.571209"
       x2="144.98213"
       y2="58.571209"
       id="linearGradient3229"
       xlink:href="#linearGradient3183"
       gradientUnits="userSpaceOnUse" />
    <linearGradient
       x1="128.27481"
       y1="55.582085"
       x2="166.50278"
       y2="55.582085"
       id="linearGradient3243"
       xlink:href="#linearGradient3183"
       gradientUnits="userSpaceOnUse" />
    <linearGradient
       x1="192.03464"
       y1="56.989109"
       x2="233.68817"
       y2="56.989109"
       id="linearGradient3264"
       xlink:href="#linearGradient3183"
       gradientUnits="userSpaceOnUse" />
    <linearGradient
       x1="166.37881"
       y1="56.866554"
       x2="198.19588"
       y2="56.866554"
       id="linearGradient3266"
       xlink:href="#linearGradient3183"
       gradientUnits="userSpaceOnUse" />
  </defs>
  <g
     style="display:inline"
     id="layer2">
    <rect
       width="249.99921"
       height="119.7206"
       x="-0.0047697485"
       y="-0.0056080469"
       style="fill:#ffffff;fill-opacity:1;fill-rule:evenodd;stroke:none;stroke-width:0.99162096px;stroke-linecap:butt;stroke-linejoin:miter;stroke-opacity:1;display:inline"
       id="rect4234" />
  </g>
  <g
     style="display:inline"
     id="layer4">
    <path
       d="M 136.89754,18.777738 C 174.47716,6.6951674 208.34687,3.5106897 218.81241,13.450444 C 231.21337,25.22839 204.95207,52.675842 157.73038,74.275713 C 116.3274,93.214031 65.261683,104.805 54.608211,93.541473 C 45.424851,83.832243 72.520063,58.286507 110.76882,41.148578 C 143.02157,26.697251 185.74091,16.304383 192.97189,25.653176 C 198.89144,33.306373 174.78936,54.302466 145.37766,66.956976 C 122.28631,76.892101 91.823164,83.541065 88.381489,75.889822 C 87.11245,73.068576 90.147124,67.458859 95.350216,62.881364 C 100.55329,58.303871 113.77864,52.01799 124.29218,47.991289 C 131.34231,45.29108 137.99026,43.616939 143.52883,43.185612 C 149.06741,42.754285 153.45388,44.036618 152.09652,47.608409 L 130.42607,54.320963 C 130.50455,54.11453 130.72791,54.167321 129.74147,54.24414 C 128.75508,54.320959 126.49083,54.910626 125.39772,55.32929 C 122.1248,56.582838 115.38212,58.93453 113.38159,60.694547 C 111.38102,62.454571 109.52552,65.857673 110.00979,66.934298 C 111.59141,70.450491 129.68765,65.828375 141.39025,60.793278 C 157.72261,53.76623 175.03925,39.611564 171.55488,35.10668 C 167.05613,29.290355 136.70135,37.487849 115.84051,46.834862 C 90.157507,58.342513 69.531452,77.184414 75.871642,83.887676 C 83.428973,91.877758 122.21717,82.498212 152.20769,68.780126 C 187.12444,52.808708 206.94592,32.056293 197.62576,23.204385 C 186.96733,13.081395 143.77552,20.890608 104.66163,39.007162 C 60.557865,59.434908 35.681854,85.661069 48.041166,96.638748 C 58.72479,106.12808 79.136672,104.61667 118.32329,90.796846 L 117.54486,98.830388 C 68.928129,115.97591 40.326174,118.35451 26.934524,106.4599 C 11.338839,92.607646 42.615368,59.69352 98.867092,33.639148 C 111.50293,27.786544 124.37102,22.805259 136.89754,18.777738 z "
       style="fill:#f54fa5;fill-opacity:1;fill-rule:evenodd;stroke:none;stroke-width:7.63017607;stroke-linecap:butt;stroke-linejoin:miter;stroke-miterlimit:4;stroke-dasharray:none;stroke-opacity:1"
       id="path4204" />
    <path
       d="M 49.28125,17.09375 C 45.292157,20.469299 41.686459,26.624601 39.8125,30.125 C 36.256969,25.69182 29.823928,22.581773 24.75,26.8125 C 14.323954,25.483902 13.462484,38.72319 14.347373,46.088156 C 13.993851,59.397704 5.1102185,72.859557 10.84375,85.96875 C 13.755502,89.002254 16.55263,94.048364 21.46875,92.9375 C 27.654218,92.808705 30.373267,83.073805 32.46875,82.21875 C 36.273929,86.610814 41.274407,91.569713 47.6875,89.21875 C 49.732826,88.584085 51.497512,86.444782 52.8125,88.90625 C 57.525893,94.829133 68.103314,91.527815 69.101275,84.09016 C 70.569599,76.8492 71.12545,83.18736 73.96875,85.8125 C 75.586654,88.746316 77.937465,91.321185 80.493626,93.569285 C 85.671161,94.931445 87.49347,82.869542 90.90625,85.71875 C 94.05328,89.861208 100.58181,92.882231 104.60771,88.047455 C 107.07363,84.06162 106.94118,80.382122 111.60183,85.025062 C 120.88391,90.513222 130.35359,95.82296 140.2055,100.18923 C 147.4536,105.22965 156.86322,97.202756 152.125,90.6875 C 158.84846,96.784319 170.71608,86.53323 169.19542,78.518235 C 167.48406,69.841088 170.75598,60.902111 172.875,53.03125 C 171.74146,63.681863 169.34361,75.879457 174.5625,85.6875 C 178.28219,89.543024 183.14853,95.918134 189.09375,92.40625 C 193.97068,92.408992 193.5589,80.235216 196.4375,83.65625 C 200.79608,88.928469 207.29337,92.957922 214.44692,91.582189 C 226.54063,88.851064 234.60067,77.910415 240.42447,67.700536 C 242.8627,59.239336 243.079,48.939971 238.03125,41.3125 C 232.30522,34.516226 225.3276,26.182451 215.58262,26.980425 C 211.23373,29.283363 204.37576,27.029944 200.8125,30.21875 C 197.8414,26.50652 193.46011,24.231031 188.53554,24.823875 C 182.12484,25.286829 174.73869,25.097336 169,26.84375 C 165.60205,21.76894 158.04301,21.147727 154.06758,26.173652 C 149.4808,29.70111 151.32029,43.779668 146.0625,34.40625 C 142.3167,30.938245 138.64101,24.551487 132.625,26.53125 C 129.47742,26.096888 128.41465,34.099883 126.25,30.40625 C 119.94284,24.467558 111.24858,20.369988 102.5,20.125 C 96.380227,17.737251 91.375627,28.196677 87.96875,26.4375 C 85.463188,23.45872 82.043607,21.648752 78.751542,19.689519 C 70.75262,16.741399 64.09482,31.726281 59.864087,29.410805 C 57.140117,24.679241 53.082978,20.935458 49.28125,17.09375 z M 217.53125,55.9375 C 217.5362,56.31315 217.11021,57.393718 217.53125,55.9375 z M 124.5625,59.96875 C 124.54934,65.009952 128.54707,73.87099 121.73017,66.663312 C 114.92605,62.818951 120.91277,63.116463 124.5625,59.96875 z "
       style="fill:#0c1f8f;fill-opacity:1;fill-rule:evenodd;stroke-width:1px;stroke-linecap:butt;stroke-linejoin:miter;stroke-opacity:1;display:inline"
       id="path3314" />
    <path
       d="M 76.90625,19.40625 C 76.031224,19.379215 75.12814,19.60079 74.46875,19.875 C 70.203042,21.64891 67.378579,24.816316 65,26.75 C 63.808233,27.718858 62.319286,28.95704 61.0625,30.78125 C 59.805714,32.60546 58.868476,35.295215 59.3125,38.125 C 59.366752,38.47075 59.204553,39.144866 58.4375,40.59375 C 58.096188,41.238453 57.647526,42.015418 57.1875,42.875 C 57.505338,39.946982 57.718009,37.083161 58.03125,34.125 C 58.679481,27.893735 53.16493,20.464316 49.28125,17.09375 C 46.77386,20.263534 44.618351,21.875813 43.75,23.0625 C 42.881649,24.249187 42.379405,25.359853 42.09375,25.90625 C 41.204514,27.607169 40.423563,29.484861 39.75,31.5 C 39.534334,30.673595 39.189729,29.868883 38.65625,29.09375 C 35.487994,24.490352 29.139025,23.396131 24.75,26.8125 C 23.139636,26.526089 21.511299,26.688621 20.21875,27.25 C 18.055838,28.189395 16.375083,29.842436 15.53125,32.21875 C 13.365901,38.316571 14.633818,43.779679 14.28125,47.59375 C 13.555888,55.440698 10.387448,63.659851 9.15625,72.9375 C 8.6853775,76.485742 8.4211974,81.400134 10.84375,85.96875 C 11.630429,87.45232 13.381907,88.388474 14.53125,88.5625 C 15.680593,88.736526 16.463501,88.553717 17.125,88.375 C 18.447998,88.017565 19.423883,87.463815 20.4375,86.8125 C 22.464734,85.509869 24.435824,84.041247 25.75,81.25 C 26.965767,78.667767 27.565963,76.186674 28,73.84375 C 28.905332,75.809964 29.741001,77.865807 30.6875,79.75 C 33.176253,84.704363 38.897774,85.9692 43.34375,84.65625 C 44.821428,84.219874 46.146176,83.528797 47.375,82.6875 C 48.15249,84.115946 49.219115,85.465931 50.8125,86.3125 C 55.663223,88.889706 62.203329,86.896991 64.15625,81.25 C 65.557344,77.198646 66.251786,75.535157 67.78125,71.46875 C 67.884322,71.194711 68.697409,70.385244 69.375,69.6875 C 69.404635,70.187002 69.308817,70.523958 69.4375,71.125 C 69.89143,73.245173 69.451266,77.018952 71.1875,81.40625 C 71.679172,82.648661 72.054031,84.149554 74.0625,85.84375 C 75.066735,86.690848 75.026478,89.664633 77.125,88.96875 C 79.223522,88.272867 82.42126,84.778414 83.0625,83.5 C 83.500729,82.62632 84.776768,81.378372 85.9375,79.5625 C 86.482851,80.713661 87.1867,81.830607 88.15625,82.84375 C 89.866164,84.63054 92.112885,86.130497 95.15625,86.03125 C 98.199615,85.932003 101.08159,83.386841 102.125,80.46875 C 102.51087,79.389596 102.63067,78.466009 102.75,77.5625 C 108.71102,81.497202 114.86187,85.186625 121.3125,88.3125 C 126.98958,91.063522 133.46974,96.076671 141.75,96.96875 C 143.74677,97.183873 146.5323,96.387059 147.875,94.34375 C 149.2177,92.300441 149.01683,90.337045 148.65625,88.84375 C 148.29567,87.350455 147.73008,86.00982 146.875,84.8125 C 146.52707,84.325314 146.10006,83.870173 145.65625,83.4375 C 145.69658,83.40508 145.74174,83.377079 145.78125,83.34375 C 145.84489,83.290066 145.84493,83.299247 145.90625,83.25 C 146.04829,83.558889 146.34775,84.016096 146.875,84.8125 C 147.15335,85.232944 147.04878,85.162525 147.40625,85.625 C 148.11204,86.538112 149.17857,87.821335 151.3125,88.28125 C 153.44643,88.741165 155.74502,87.717051 157.03125,86.5 C 157.60495,85.95716 159.24249,84.949117 161,83.53125 C 162.75751,82.113383 165.14855,79.543688 164.96875,75.90625 C 164.70779,70.626841 163.94552,65.954048 164.875,62.3125 C 166.02483,57.807645 167.31288,53.151131 168.375,48.375 C 168.47902,48.410338 168.55035,48.499851 168.65625,48.53125 C 170.28648,49.014592 171.71158,48.965061 173.03125,48.78125 C 173.07226,49.95483 173.14727,51.394025 173.03125,52.09375 C 171.42052,61.808347 170.64318,72.389834 172.65625,81.96875 C 173.34829,85.261745 175.11406,86.258198 176.84375,87.375 C 177.7086,87.933401 178.62049,88.42615 179.8125,88.71875 C 181.00451,89.01135 182.85704,89.247213 184.75,87.84375 C 187.60903,85.72403 191.07713,82.067555 190.84375,76.59375 C 190.79031,75.340352 190.78478,74.375703 190.75,73.3125 C 190.81848,73.532754 190.82471,73.746466 190.90625,73.96875 C 191.79889,76.402022 192.74808,80.991094 197.125,84 C 202.70574,87.836464 210.03511,88.314585 216,85.03125 C 223.08814,81.129642 228.53065,75.16703 232.625,68.78125 C 234.16035,66.38663 236.91124,63.175189 237.40625,58.34375 C 237.81183,54.385274 237.47147,50.75504 237.4375,47.5625 C 237.39086,43.180121 235.50531,39.596121 233.6875,36.75 C 231.4843,33.300484 228.56655,31.834236 227.125,30.5625 C 224.39104,28.150599 221.33098,27.512451 219.0625,26.96875 C 218.6114,26.860635 218.06493,26.783708 217.5625,26.78125 C 214.55778,26.76655 213.12001,28.031592 212.21875,28.875 C 208.58239,26.83898 203.80335,27.514939 201.21875,30.8125 C 201.11884,30.939964 201.00939,31.118188 200.90625,31.25 C 200.39781,30.17958 199.78827,29.2045 198.96875,28.3125 C 197.73948,26.974501 196.16668,25.616977 193.625,25.25 C 191.40334,24.929229 189.11414,24.784349 186.8125,24.8125 C 184.48912,24.840917 182.21792,25.080547 180,25.4375 C 179.1891,25.568007 177.62775,25.495108 175.78125,25.53125 C 173.93475,25.567392 171.58901,25.643985 169.1875,27.21875 C 169.07407,27.293129 169.01534,27.392176 168.90625,27.46875 C 167.94644,25.535835 166.38592,23.511631 163.6875,22.8125 C 162.83187,22.590815 162.07581,22.570971 161.4375,22.59375 C 158.9091,22.683978 156.90628,23.744834 155.25,25.09375 C 153.59372,26.442666 152.22375,28.132555 151.53125,30.4375 C 149.12868,38.434261 147.658,46.412614 145.59375,53.90625 C 145.30142,54.967487 145.02538,55.793781 144.75,56.75 C 144.63641,54.294666 144.55239,51.986616 144.875,49.96875 C 145.35358,46.975332 146.22541,43.53895 146.21875,39.59375 C 146.20925,33.970087 142.43509,30.191509 139.3125,27.78125 C 138.93637,27.490927 138.36582,27.037811 137.375,26.59375 C 136.38418,26.149689 134.54642,25.648186 132.625,26.53125 C 130.07342,27.703923 128.48866,29.728966 127.375,31.8125 C 125.5076,29.254516 122.98665,27.233622 120.4375,25.875 C 115.91891,23.466718 110.78416,20.642626 104.4375,20.15625 C 103.80802,20.108009 103.15838,20.101276 102.5,20.125 C 97.958647,20.288639 93.431558,22.2076 90.21875,25.875 C 88.110304,28.281778 87.412676,31.070046 87.15625,33.53125 C 86.514803,32.669404 86.09075,32.243568 85.53125,31.65625 C 86.092886,31.04253 86.975348,30.30685 87.09375,27.875 C 87.159709,26.520278 86.422028,24.732319 85.4375,23.8125 C 84.452972,22.892681 83.495106,22.533816 82.625,22.28125 C 82.980234,22.384364 82.541758,22.20758 81.75,21.5625 C 80.958242,20.91742 79.750214,19.494117 76.90625,19.40625 z M 105.8125,44.625 C 105.82084,44.924869 105.70287,44.95418 105.78125,44.6875 C 105.78509,44.674421 105.80834,44.638701 105.8125,44.625 z M 194.875,45.125 C 194.77473,45.521429 194.65258,45.904424 194.5625,46.3125 C 194.55641,45.889958 194.58396,45.499597 194.5625,45.15625 C 194.661,45.15029 194.76964,45.134485 194.875,45.125 z M 215.84375,49.34375 C 215.88087,49.413207 215.844,49.380474 215.90625,49.5 C 216.28951,50.235957 216.71992,51.601531 217.25,53.09375 C 217.79259,54.621154 217.68527,56.519464 216.875,57.96875 C 214.94709,61.417118 214.4958,63.270762 213.5,63.9375 C 212.43865,64.648126 212.07161,65.069243 211.4375,65.65625 C 211.57052,64.792986 211.69324,64.127791 211.75,62.875 C 211.88885,59.81065 211.85559,57.328879 212.375,55.34375 C 212.86823,53.458666 212.99147,51.982585 213.21875,51.1875 C 213.44603,50.392415 213.30767,50.642277 213.40625,50.59375 C 215.08825,49.765758 215.83483,49.447099 215.84375,49.34375 z M 72.3125,49.65625 C 72.798019,50.08618 73.058174,50.493237 73.25,50.90625 C 72.92869,50.92933 72.675894,50.992682 72.25,50.90625 C 71.557441,50.765701 71.36588,50.585667 71.03125,50.40625 C 71.102679,50.318759 71.065811,50.284324 71.15625,50.1875 C 71.521509,49.796453 72.112372,49.654759 72.3125,49.65625 z M 124.375,52.125 C 124.36582,54.983952 124.41543,57.850929 124.59375,60.6875 C 124.80475,64.043878 125.49469,67.159975 126.28125,70.1875 C 121.80485,66.810779 117.44319,63.237105 113.25,59.53125 C 116.68715,57.73826 120.10497,55.733469 123.25,53.15625 C 123.61551,52.856729 123.99557,52.464746 124.375,52.125 z "
       style="fill:#000000;fill-opacity:1;fill-rule:evenodd;stroke:none;stroke-width:1px;stroke-linecap:butt;stroke-linejoin:miter;stroke-opacity:1;display:inline"
       id="path3285" />
    <path
       d="M 76.875,21.25 C 76.277414,21.231537 75.631249,21.36497 75.15625,21.5625 C 71.453862,23.102151 68.662498,26.150027 66.15625,28.1875 C 65.001186,29.12652 63.667775,30.253566 62.59375,31.8125 C 61.519725,33.371434 60.761227,35.52541 61.125,37.84375 C 61.276838,38.811422 60.881464,39.89056 60.0625,41.4375 C 59.243536,42.98444 58.023551,44.801805 57.40625,47.15625 C 56.779471,49.546845 55.629942,51.810065 54.28125,53.96875 C 54.811647,47.318447 55.506457,40.664195 56.21875,33.9375 C 56.626267,30.089021 55.70746,25.881419 52.34375,22.46875 C 51.441661,21.553531 50.326631,20.258774 49.375,20.3125 C 47.311091,20.429019 45.987152,23.117608 45.25,24.125 C 44.512848,25.132392 44.020423,26.172964 43.71875,26.75 C 42.454056,29.169089 41.265897,31.761916 40.65625,34.71875 C 39.914123,38.318117 38.953273,42.300696 39.5,46.625 C 39.756654,48.654989 39.661523,50.762526 39.4375,52.875 C 38.986333,50.803546 38.303316,48.874799 37.625,47.1875 C 36.67134,44.815287 36.021422,42.816699 36.21875,40.96875 C 36.29494,40.25524 36.998605,38.803084 37.65625,37 C 38.313895,35.196916 38.761097,32.456805 37.15625,30.125 C 34.452352,26.196303 28.649097,25.489531 25.15625,28.96875 C 23.707449,28.485979 22.171703,28.401462 20.9375,28.9375 C 19.243806,29.673104 17.896374,30.992249 17.25,32.8125 C 15.310652,38.27388 16.513478,43.547452 16.125,47.75 C 15.368004,55.939171 12.160798,64.20486 10.96875,73.1875 C 10.530295,76.491463 10.392544,81.209548 12.46875,85.125 C 12.96367,86.058352 14.055583,86.635393 14.8125,86.75 C 15.569417,86.864607 16.115614,86.731371 16.625,86.59375 C 17.643771,86.318508 18.531597,85.863352 19.4375,85.28125 C 21.249306,84.117046 23.071734,82.639462 24.09375,80.46875 C 26.199303,75.996654 26.486872,71.610875 27.25,67.78125 C 28.747302,71.639676 30.508835,75.34695 32.3125,78.9375 C 34.327971,82.9497 39.045909,84.018569 42.8125,82.90625 C 44.851998,82.303962 46.630461,81.161033 48.09375,79.71875 C 48.469292,81.60766 49.61735,83.604227 51.65625,84.6875 C 55.549959,86.756241 60.874219,85.176572 62.4375,80.65625 C 63.847997,76.577707 64.538189,74.865206 66.0625,70.8125 C 66.41182,69.883758 67.649203,68.363047 69.0625,67.34375 C 69.933179,66.715799 70.748195,66.391569 71.4375,66.1875 C 71.254709,67.256425 70.791539,68.723374 71.21875,70.71875 C 71.758722,73.240801 71.354903,76.87761 72.875,80.71875 C 73.317623,81.837218 73.545718,82.869367 74.625,84.4375 C 75.477553,85.67621 76.058395,87.17607 77.4375,86.71875 C 78.816605,86.26143 80.907646,83.743849 81.4375,82.6875 C 82.508842,80.551605 85.790648,77.999075 86.28125,73.3125 C 86.512414,71.104246 86.767482,67.789439 87.09375,64.90625 C 87.115451,64.714482 87.133804,64.593546 87.15625,64.40625 C 87.88432,65.842942 88.248082,67.230224 87.53125,68.96875 C 85.953493,72.795272 86.008806,77.946992 89.46875,81.5625 C 90.935177,83.094857 92.813833,84.26185 95.09375,84.1875 C 97.373667,84.11315 99.524859,82.30873 100.40625,79.84375 C 101.08225,77.95319 101.09571,76.00895 101.21875,74.375 C 107.87233,78.934757 114.84207,83.127053 122.125,86.65625 C 128.02344,89.514536 134.36507,94.340429 141.9375,95.15625 C 143.52561,95.327345 145.42261,94.74554 146.34375,93.34375 C 147.26489,91.94196 147.16581,90.48562 146.875,89.28125 C 146.29338,86.872509 144.81611,84.67639 142.46875,83.3125 C 142.34016,83.237783 142.22224,83.137671 142.09375,83.0625 C 142.95908,82.822251 143.84242,82.571256 144.59375,81.9375 C 145.38129,81.273191 145.93881,80.924023 146.3125,80.6875 C 146.47305,80.862889 146.54045,80.902926 146.78125,81.1875 C 146.90261,81.33092 147.68129,82.996062 148.84375,84.5 C 149.42498,85.251969 150.26082,86.185781 151.71875,86.5 C 153.17668,86.814219 154.755,86.127305 155.78125,85.15625 C 156.6033,84.378418 158.24839,83.380809 159.84375,82.09375 C 161.43911,80.806691 163.26353,78.802483 163.125,76 C 162.87307,70.903264 162.03069,66.008639 163.09375,61.84375 C 164.43925,56.572301 165.91594,51.17619 167.03125,45.65625 C 167.67032,46.139348 168.38461,46.543203 169.1875,46.78125 C 171.43172,47.446631 173.26862,47.033798 174.90625,46.46875 C 174.90299,46.525897 174.87667,46.533426 174.875,46.59375 C 174.80935,48.969734 175.10171,50.850438 174.84375,52.40625 C 173.25398,61.994405 172.50237,72.385706 174.4375,81.59375 C 174.91807,83.880469 176.37984,84.898552 177.84375,85.84375 C 178.57571,86.316349 179.34167,86.714535 180.25,86.9375 C 181.15833,87.160465 182.42618,87.286989 183.65625,86.375 C 186.19004,84.496414 189.19245,81.169996 189,76.65625 C 188.81469,72.310156 188.61145,69.265446 189.28125,65.3125 C 189.54955,63.729049 189.97755,62.08684 190.34375,60.46875 C 190.59903,61.3028 190.91156,62.092331 191.21875,62.625 C 191.93276,63.8631 192.18291,64.44921 192.15625,64.6875 C 191.87321,67.217517 191.54121,70.273012 192.65625,73.3125 C 193.60354,75.89477 194.45495,79.955547 198.15625,82.5 C 203.16272,85.941687 209.7954,86.339896 215.125,83.40625 C 221.86575,79.695859 227.08879,73.978864 231.0625,67.78125 C 232.66332,65.284509 235.17079,62.28441 235.59375,58.15625 C 235.97504,54.434778 235.62876,50.884253 235.59375,47.59375 C 235.55301,43.76618 233.8595,40.465693 232.125,37.75 C 230.2474,34.810277 227.55866,33.395252 225.90625,31.9375 C 223.58899,29.893209 220.87941,29.290329 218.625,28.75 C 218.28921,28.66952 217.89442,28.626777 217.53125,28.625 C 214.81999,28.611736 213.41437,30.323425 212.5625,30.96875 C 212.39051,31.099036 212.4714,31.039483 212.375,31.09375 C 209.44023,28.586567 204.96419,28.99291 202.65625,31.9375 C 201.78696,33.046581 200.89791,34.341949 200.09375,35.75 C 200.01071,34.934581 200.01045,34.030722 199.84375,33.40625 C 199.45616,31.954269 198.66993,30.699846 197.625,29.5625 C 196.58007,28.425154 195.25901,27.33452 193.375,27.0625 C 191.24549,26.755035 189.04564,26.629319 186.84375,26.65625 C 184.62918,26.683336 182.42603,26.904819 180.28125,27.25 C 179.18052,27.427151 177.55977,27.3408 175.8125,27.375 C 174.06523,27.4092 172.06912,27.516145 170.1875,28.75 C 169.38556,29.275867 168.74126,29.941886 168.15625,30.625 C 168.04611,30.144157 167.98731,29.668438 167.8125,29.1875 C 167.12761,27.303259 165.71338,25.231986 163.25,24.59375 C 162.61671,24.429672 162.01503,24.41912 161.5,24.4375 C 159.52573,24.507953 157.81928,25.349196 156.40625,26.5 C 154.99322,27.650804 153.83317,29.1317 153.28125,30.96875 C 150.91754,38.836173 149.46758,46.809765 147.375,54.40625 C 146.34767,58.135719 145.47676,61.647321 143.71875,63.96875 C 143.44189,63.145101 143.09875,62.117639 143.09375,61.84375 C 143.01323,57.43057 142.47044,53.390706 143.0625,49.6875 C 143.55607,46.600295 144.38117,43.244656 144.375,39.59375 C 144.36708,34.90487 141.09193,31.491867 138.1875,29.25 C 137.8411,28.982625 137.35967,28.579262 136.625,28.25 C 135.89033,27.920738 134.67164,27.605941 133.40625,28.1875 C 130.83348,29.369911 129.21026,31.602867 128.28125,33.84375 C 127.9785,34.574012 127.8233,35.323086 127.625,36.0625 C 126.13284,32.232498 122.93359,29.280038 119.59375,27.5 C 115.08028,25.094451 110.14314,22.449226 104.28125,22 C 103.7132,21.956467 103.14826,21.947643 102.5625,21.96875 C 98.501442,22.115082 94.444397,23.839755 91.59375,27.09375 C 89.521524,29.459183 88.932481,32.282072 88.8125,34.75 C 88.692519,37.217928 88.937688,39.469661 88.8125,41.25 C 88.650952,43.547412 89.078097,45.5629 89.3125,47.28125 C 89.546903,48.9996 89.611962,50.373128 89.21875,51.59375 C 89.198833,51.655577 88.849497,51.967964 88.78125,52.0625 C 88.779156,52.053538 88.783323,52.040213 88.78125,52.03125 C 87.906772,48.249222 88.211747,44.468839 87.78125,39.875 C 87.390016,35.700148 84.62749,33.489351 83.15625,31.71875 C 83.321893,31.476621 83.517742,31.234988 83.875,30.78125 C 84.360782,30.164279 85.163863,29.550412 85.25,27.78125 C 85.293069,26.896669 84.814105,25.770866 84.15625,25.15625 C 83.498395,24.541634 82.833909,24.268276 82.125,24.0625 C 81.954448,24.012994 81.366668,23.629731 80.59375,23 C 79.820832,22.370269 78.839026,21.310681 76.875,21.25 z M 105.375,37.8125 C 106.13432,38.024183 106.90418,38.303659 107.46875,38.6875 C 107.96657,39.025957 108.27423,39.375262 108.375,39.5625 C 108.47577,39.749738 108.45164,39.693929 108.40625,39.84375 C 108.24733,40.368277 107.61402,41.117212 106.53125,41.78125 C 105.95717,42.133318 105.2721,42.307291 104.59375,42.5625 C 104.7093,42.248859 104.78829,42.025111 104.90625,41.6875 C 105.24254,40.725041 105.63717,39.774504 105.53125,38.34375 C 105.51412,38.11237 105.41304,38.016264 105.375,37.8125 z M 197.5625,42.1875 C 196.97677,44.013779 196.43114,45.879761 196.0625,47.90625 C 195.86474,48.993329 195.09915,50.090716 193.9375,51.46875 C 193.16394,52.386408 192.30803,53.491043 191.5,54.75 C 192.00305,52.39636 192.50417,50.025046 192.75,47.53125 C 192.89159,46.094835 192.72816,44.797558 192.71875,43.8125 C 192.71698,43.627562 192.74227,43.583911 192.75,43.4375 C 192.93126,43.432942 192.90265,43.427066 193.625,43.4375 C 194.6057,43.451666 196.17085,43.163689 197.5625,42.1875 z M 126.375,47.21875 C 126.17933,51.678825 126.15919,56.135309 126.4375,60.5625 C 126.72272,65.099484 127.87187,69.412173 129.0625,73.5 C 129.21134,74.011026 129.57677,74.509067 129.78125,75.03125 C 123.20993,70.372378 116.84114,65.307604 110.84375,59.9375 C 110.37954,59.521839 110.25679,59.503321 109.84375,59.21875 C 114.05771,57.175711 118.3213,54.84136 122.09375,51.75 C 123.57963,50.53238 125.15204,49.034727 126.375,47.21875 z M 216.1875,47.3125 C 216.17397,47.312823 216.18611,47.320049 216.3125,47.34375 C 216.71894,47.419963 217.02152,47.677455 217.53125,48.65625 C 218.04098,49.635045 218.47156,51.100366 218.96875,52.5 C 219.68646,54.520379 219.55397,56.933914 218.46875,58.875 C 216.72986,61.985277 216.22306,64.336001 214.53125,65.46875 C 212.94851,66.528474 211.81333,67.812906 210.875,68.5 C 210.40583,68.843547 210.05781,69.005924 209.9375,69.03125 C 209.81719,69.056576 209.9396,69.11515 209.75,69 C 209.56309,68.886482 209.57204,68.887646 209.5,68.6875 C 209.42796,68.487354 209.3527,68.033008 209.375,67.4375 C 209.41961,66.246485 209.82471,64.612224 209.90625,62.8125 C 210.04039,59.85214 209.98547,57.199772 210.59375,54.875 C 211.02551,53.224856 211.13923,51.699676 211.4375,50.65625 C 211.73577,49.612824 211.93674,49.260919 212.59375,48.9375 C 214.34328,48.076267 215.78468,47.322118 216.1875,47.3125 z "
       style="fill:#ffffff;fill-opacity:1;fill-rule:evenodd;stroke:none;stroke-width:1px;stroke-linecap:butt;stroke-linejoin:miter;stroke-opacity:1;display:inline"
       id="path3311" />
    <path
       d="M 25.178572,31.607143 C 23.213379,30.108318 20.415176,31.609471 19.675252,33.693167 C 18.052273,38.263629 19.111227,43.255045 18.67248,48.001403 C 17.8712,56.669634 14.668947,64.961556 13.531702,73.531228 C 13.138626,76.493237 13.159694,80.902462 14.751068,83.903584 C 15.44308,85.208627 20.523118,81.981038 21.749189,79.376922 C 23.93707,74.729966 23.772573,69.426697 25.245225,64.644916 C 26.130366,61.770817 27.687618,61.734931 29.505121,66.49312 C 30.980846,70.356543 32.781532,74.087257 34.632129,77.771235 C 35.985078,80.464548 39.293182,81.267456 42.108737,80.435989 C 45.598238,79.405498 48.264917,76.514875 49.151725,72.972829 C 50.359258,68.149758 50.999743,63.247332 51.286466,58.300431 C 51.764295,50.056331 52.772448,41.848569 53.641296,33.643414 C 53.979376,30.450683 53.161544,26.548533 50.367057,24.605852 C 48.357181,23.20862 46.7999,26.398846 46.002127,27.924817 C 44.78736,30.248409 43.7094,32.643228 43.172378,35.247826 C 42.422358,38.88548 41.595049,42.563915 42.067261,46.29885 C 42.548029,50.101457 42.126682,53.95298 41.356477,57.687663 C 40.545924,61.617995 37.409232,58.07991 37.342359,55.492945 C 37.21225,50.459675 33.107318,45.889105 33.661655,40.697821 C 33.980329,37.713482 37.072383,34.551532 35.03717,31.594416 C 33.255426,29.005586 28.972437,28.467392 26.753216,30.91699 C 26.372712,31.336994 25.582858,31.915486 25.178572,31.607143 z "
       style="fill:url(#linearGradient3189);fill-opacity:1;fill-rule:evenodd;stroke:none;stroke-width:1px;stroke-linecap:butt;stroke-linejoin:miter;stroke-opacity:1"
       id="path3171" />
    <path
       d="M 76.15625,23.9375 C 73.242424,25.149225 70.453087,27.992772 67.768123,30.175534 C 65.560749,31.970036 63.152921,34.217477 63.655787,37.422266 C 64.232675,41.098801 60.83822,44.201986 59.894395,47.801822 C 58.786268,52.028325 56.562813,55.960505 53.731354,59.271049 C 51.747498,61.590574 51.459098,64.253964 52.805896,66.996241 C 54.129854,69.692011 51.941922,72.471771 51.011021,75.070106 C 50.105677,77.597109 50.225868,80.988854 52.887488,82.402979 C 55.441523,83.759944 58.985866,82.768928 60.00371,79.82577 C 61.427371,75.709165 62.128065,73.936543 63.645163,69.903015 C 64.896929,66.574927 69.729137,63.036433 72.787241,63.418416 C 75.423914,63.747758 73.273961,67.896161 73.762191,70.176541 C 74.42261,73.261162 74.055515,76.703835 75.273053,79.780438 C 76.020979,81.670375 77.628095,84.521223 79.123818,81.539258 C 80.557806,78.680371 83.369255,76.451383 83.727002,73.03393 C 84.172592,68.777344 84.722034,59.644388 85.849718,58.492387 C 87.640717,56.662768 86.836049,55.066195 86.271769,52.625745 C 85.290634,48.382443 85.617552,44.455078 85.212477,40.132515 C 84.909204,36.896274 82.329348,35.068716 80.644703,32.753856 C 78.942807,30.415293 85.260122,27.658423 81.394052,26.536216 C 79.321887,25.934727 77.89128,23.215981 76.15625,23.9375 z M 73.125,46.59375 C 73.833753,46.737586 75.604935,51.858525 74.369864,53.180795 C 73.16966,54.465736 71.048142,54.246849 69.442395,52.937217 C 68.503434,52.171408 71.746545,46.314002 73.125,46.59375 z "
       style="fill:url(#linearGradient3213);fill-opacity:1;fill-rule:evenodd;stroke:none;stroke-width:1px;stroke-linecap:butt;stroke-linejoin:miter;stroke-opacity:1"
       id="path3191" />
    <path
       d="M 104.09375,24.5625 C 100.23724,24.266957 96.222022,25.720906 93.543534,28.778382 C 90.377606,32.392267 91.681065,37.228682 91.384032,41.452868 C 91.124609,45.142189 92.807237,48.755955 91.641893,52.373456 C 90.636727,55.493725 85.252627,56.949531 88.156383,60.911266 C 90.109149,63.575519 91.341812,66.484528 89.915116,69.944679 C 88.677256,72.94685 88.786535,77.101972 91.35213,79.78292 C 93.603292,82.135297 96.659966,82.635095 97.96915,78.973708 C 98.894569,76.385596 98.263888,69.238453 100.35069,70.718176 C 107.58333,75.846741 115.24908,80.453714 123.24478,84.328306 C 129.45308,87.336748 135.63716,91.884678 142.21875,92.59375 C 146.28288,93.031601 144.21292,87.280581 141.1767,85.516438 C 129.8775,78.951235 119.01855,70.720156 109.11729,61.854498 C 107.70051,60.585906 103.87977,59.231665 107.25383,57.651376 C 111.85501,55.496344 116.51399,53.00421 120.47241,49.760453 C 123.26081,47.475475 125.92997,44.569133 125.94523,40.628673 C 125.96395,35.796483 122.36691,31.906114 118.37903,29.780691 C 113.87274,27.378967 109.27704,24.959721 104.09375,24.5625 z M 102.5,35.09375 C 105.50845,34.257195 111.9799,36.914051 110.8686,40.581901 C 110.02055,43.380895 106.25146,45.125525 103.44016,45.760727 C 98.862904,46.79494 103.15147,41.013181 102.96886,38.546604 C 102.85675,37.032223 100.81485,35.562335 102.5,35.09375 z "
       style="fill:url(#linearGradient3229);fill-opacity:1;fill-rule:evenodd;stroke:none;stroke-width:1px;stroke-linecap:butt;stroke-linejoin:miter;stroke-opacity:1"
       id="path3215" />
    <path
       d="M 134.46429,30.535713 C 130.78214,32.22798 129.75414,36.90343 129.35739,40.763179 C 128.68654,47.289499 128.58657,53.871572 128.99684,60.397921 C 129.26088,64.598054 130.33783,68.736098 131.51601,72.781197 C 132.28022,75.404975 133.60863,77.879868 136.26862,79.061932 C 138.45307,80.032671 140.16653,82.327922 142.94646,79.983002 C 146.48693,76.996547 146.7464,77.192006 148.73691,79.544382 C 150.07767,81.128881 151.34384,85.793968 153.99311,83.287182 C 156.3325,81.073614 160.737,79.395843 160.57549,76.128497 C 160.3362,71.287473 159.35042,66.121312 160.60047,61.223826 C 162.84595,52.426368 165.50153,43.52048 166.00277,34.504194 C 166.15086,31.840353 165.3967,27.820602 162.5874,27.092742 C 160.01107,26.425244 156.56235,29.01542 155.7506,31.71729 C 153.44129,39.403659 151.98149,47.340798 149.84925,55.081256 C 148.70614,59.230992 147.84709,63.986017 144.59283,66.951301 C 142.18037,69.149541 140.57991,63.923291 140.54287,61.892641 C 140.46622,57.690993 139.84973,53.487165 140.52162,49.284649 C 141.03618,46.066157 141.83011,42.820752 141.82464,39.581812 C 141.81894,36.201489 139.23646,33.273251 136.63742,31.267107 C 136.02786,30.796604 135.15838,30.216716 134.46429,30.535713 z "
       style="fill:url(#linearGradient3243);fill-opacity:1;fill-rule:evenodd;stroke:none;stroke-width:1px;stroke-linecap:butt;stroke-linejoin:miter;stroke-opacity:1"
       id="path3231" />
    <path
       d="M 171.60715,30.892857 C 169.17324,32.488869 167.82738,36.322653 167.01028,39.410127 C 166.45669,41.50188 167.69516,43.647465 169.90261,44.301948 C 172.38113,45.0368 174.63292,43.7511 176.90185,42.988775 C 179.71035,42.045165 177.46749,45.236429 177.4284,46.651631 C 177.37194,48.695299 177.72311,50.731007 177.37676,52.819884 C 175.81633,62.231041 175.13827,72.382552 176.96429,81.071431 C 177.33336,82.827607 180.92318,85.204041 182.13169,84.308036 C 184.21019,82.767003 186.56422,79.945838 186.42907,76.776029 C 186.24517,72.462829 186.04045,69.123615 186.76196,64.865481 C 187.75871,58.982928 189.58684,53.230314 190.17459,47.267956 C 190.36519,45.334376 189.64808,42.006984 190.85937,41.238839 C 192.42983,40.24293 194.86911,41.642903 196.48722,39.958966 C 198.06939,38.312434 197.80384,35.831956 197.33231,34.065532 C 196.86647,32.320407 194.91599,29.903678 192.98925,29.625489 C 188.98823,29.047808 184.78211,29.108839 180.69735,29.76624 C 177.68449,30.25113 173.91487,29.379594 171.60715,30.892857 z "
       style="fill:url(#linearGradient3266);fill-opacity:1;fill-rule:evenodd;stroke:none;stroke-width:1px;stroke-linecap:butt;stroke-linejoin:miter;stroke-opacity:1"
       id="path3245" />
    <path
       d="M 218.03125,31.25 C 215.24123,30.581297 213.27002,35.561692 211.05645,33.236839 C 209.16334,31.248562 206.24141,31.54335 204.69255,33.519462 C 203.32085,35.269535 201.9597,37.053169 201.24702,39.215627 C 200.2507,42.238737 199.17137,45.211531 198.59547,48.377342 C 197.92282,52.074956 194.06724,54.250131 192.73974,57.685635 C 191.69249,60.395847 195.01132,62.274891 194.71067,64.962202 C 194.43408,67.434516 194.21576,70.149035 195.05455,72.435503 C 196.07836,75.226347 196.86477,78.493221 199.62031,80.387511 C 203.82291,83.276571 209.43608,83.596577 213.87638,81.152443 C 220.13083,77.709727 225.11186,72.340107 228.91668,66.405898 C 230.60917,63.766205 232.69747,61.034314 233.01956,57.890639 C 233.36686,54.500939 233.07591,51.038547 233.03944,47.610911 C 233.00697,44.559989 231.59559,41.65107 229.9777,39.117957 C 228.55591,36.891867 226.15711,35.606949 224.20954,33.888803 C 222.47558,32.359108 220.26596,31.785608 218.03125,31.25 z M 216.78125,44.8125 C 219.63489,45.347597 220.49715,49.09382 221.39946,51.63388 C 222.36231,54.344351 222.17558,57.510695 220.70546,60.140226 C 219.23117,62.777225 218.62406,65.818146 215.95795,67.603239 C 213.71521,69.104866 211.18942,72.885322 208.39215,71.18646 C 205.67065,69.533616 207.21499,65.442243 207.34027,62.677258 C 207.46781,59.862467 207.36142,57.008011 208.0941,54.207791 C 208.78552,51.565262 208.57871,48.034706 211.45614,46.618255 C 213.1518,45.783543 215.00044,44.478574 216.78125,44.8125 z "
       style="fill:url(#linearGradient3264);fill-opacity:1;fill-rule:evenodd;stroke:none;stroke-width:1px;stroke-linecap:butt;stroke-linejoin:miter;stroke-opacity:1"
       id="path3249" />
    <path
       d="M 217.21875,90.46875 L 213,90.625 C 212.72567,90.638735 212.47257,90.77679 212.3125,91 L 200.46875,106.90625 C 200.26701,107.17903 200.2355,107.54198 200.38723,107.84545 C 200.53896,108.14891 200.84823,108.34148 201.1875,108.34375 L 205.59375,108.34375 C 205.8792,108.33961 206.14581,108.2005 206.3125,107.96875 L 212,100.03125 L 216.375,103.21875 C 216.73804,103.49072 217.24663,103.45057 217.5625,103.125 L 221.28125,99.25 C 221.49101,99.029852 221.57564,98.718793 221.50635,98.422716 C 221.43705,98.126639 221.22317,97.885448 220.9375,97.78125 L 215.34375,95.6875 L 218,91.90625 C 218.20956,91.624398 218.23634,91.246495 218.06863,90.937904 C 217.90092,90.629313 217.56925,90.446223 217.21875,90.46875 z M 177.59375,90.8125 C 177.29663,90.830718 177.02765,90.994441 176.875,91.25 L 174.875,94.53125 L 168.125,94.53125 C 167.86114,94.529782 167.60989,94.643988 167.4375,94.84375 L 165.46875,97.125 C 165.23515,97.387965 165.17583,97.76278 165.31682,98.085025 C 165.4578,98.407271 165.77333,98.618089 166.125,98.625 L 171.71875,98.75 C 169.5641,100.80829 166.39673,102.52903 162.375,103.75 C 162.07388,103.83181 161.83648,104.06353 161.7474,104.36259 C 161.65832,104.66164 161.73023,104.9855 161.9375,105.21875 L 164.25,107.875 C 164.47997,108.14501 164.84688,108.25508 165.1875,108.15625 C 171.38559,106.47123 175.42485,103.14147 178.40625,99.15625 L 184.1875,99.15625 C 184.36596,99.154807 184.53997,99.100427 184.6875,99 C 182.88115,100.77048 180.73427,102.41272 178.09375,103.84375 C 177.85052,103.97876 177.68325,104.2185 177.64049,104.49338 C 177.59773,104.76826 177.68428,105.04749 177.875,105.25 L 180.375,107.90625 C 180.66121,108.20183 181.11123,108.26611 181.46875,108.0625 C 183.48349,106.95568 185.16157,105.71936 186.6875,104.40625 C 186.67412,104.44712 186.66367,104.48889 186.65625,104.53125 L 186.46875,106.28125 C 186.44129,106.52714 186.51611,106.77352 186.67567,106.96262 C 186.83522,107.15172 187.06549,107.26693 187.3125,107.28125 L 190.5,107.46875 C 190.62802,107.47481 190.75586,107.4535 190.875,107.40625 C 196.24129,105.48652 201.46109,103.01523 205.5,99.09375 C 205.67521,98.928646 205.7771,98.700319 205.78297,98.459646 C 205.78884,98.218972 205.6982,97.985949 205.53125,97.8125 L 203.25,95.5 C 203.07965,95.319128 202.84221,95.216582 202.59375,95.216582 C 202.34529,95.216582 202.10785,95.319128 201.9375,95.5 C 200.68478,96.774258 199.20487,97.824261 197.375,98.71875 L 201.75,92.40625 C 201.94981,92.115365 201.96151,91.734639 201.77995,91.432031 C 201.59838,91.129422 201.25694,90.960584 200.90625,91 L 197,91.34375 C 196.70811,91.378565 196.45154,91.553505 196.3125,91.8125 C 196.19591,92.031204 196.02526,92.249464 195.90625,92.46875 C 195.73418,92.206706 195.43834,92.052866 195.125,92.0625 L 190.1875,92.21875 C 189.85474,92.228381 189.55437,92.420617 189.40625,92.71875 C 188.79418,93.87718 188.08203,94.954625 187.28125,96.03125 C 187.43564,95.757597 187.4364,95.423301 187.28327,95.148943 C 187.13014,94.874584 186.84521,94.699749 186.53125,94.6875 L 181.5,94.5625 L 182.8125,92.78125 C 183.00715,92.521916 183.04752,92.178025 182.91823,91.88066 C 182.78894,91.583295 182.50991,91.378276 182.1875,91.34375 L 177.75,90.8125 C 177.69801,90.807978 177.64574,90.807978 177.59375,90.8125 z M 154.625,95.9375 C 154.33924,95.965521 154.08391,96.127999 153.9375,96.375 L 151.8125,99.71875 C 151.64236,99.994251 151.63304,100.33984 151.7881,100.62411 C 151.94315,100.90837 152.23875,101.08764 152.5625,101.09375 L 161.5625,101.09375 C 161.84795,101.08961 162.11456,100.9505 162.28125,100.71875 L 164.59375,97.5625 C 164.79258,97.294227 164.82683,96.938023 164.68275,96.636781 C 164.53868,96.335539 164.23989,96.138613 163.90625,96.125 L 154.71875,95.9375 C 154.68752,95.935874 154.65623,95.935874 154.625,95.9375 z M 224.625,96.03125 C 224.33924,96.059271 224.08391,96.221749 223.9375,96.46875 L 221.8125,99.8125 C 221.64236,100.088 221.63304,100.43359 221.7881,100.71786 C 221.94315,101.00212 222.23875,101.18139 222.5625,101.1875 L 231.5625,101.1875 C 231.84795,101.18336 232.11456,101.04425 232.28125,100.8125 L 234.59375,97.625 C 234.79549,97.352218 234.827,96.989266 234.67527,96.685805 C 234.52354,96.382344 234.21427,96.189773 233.875,96.1875 L 224.6875,96.03125 C 224.66667,96.030528 224.64583,96.030528 224.625,96.03125 z M 186.6875,96.78125 C 186.12257,97.484112 185.53788,98.181961 184.875,98.84375 L 186.6875,96.78125 z M 192.90625,97.375 C 192.26847,98.295485 191.59992,99.204776 190.84375,100.09375 C 191.58716,99.202785 192.22889,98.284568 192.90625,97.375 z "
       style="fill:#ffffff;fill-opacity:1;fill-rule:evenodd;stroke:none;stroke-width:1px;stroke-linecap:butt;stroke-linejoin:miter;stroke-opacity:1;display:inline"
       id="path4231" />
    <path
       d="M 217.25,91.375 L 213.03125,91.53125 L 201.1875,107.4375 L 205.59375,107.4375 L 211.78125,98.78125 L 216.90625,102.5 L 220.625,98.625 L 213.90625,96.125 L 217.25,91.375 z M 177.65625,91.71875 L 175.375,95.4375 L 168.125,95.4375 L 166.15625,97.71875 L 173.78125,97.90625 C 171.58669,100.84536 167.64794,103.10007 162.625,104.625 L 164.9375,107.28125 C 171.14331,105.59413 175.08367,102.28674 178,98.25 L 184.1875,98.25 L 186.5,95.59375 L 179.78125,95.4375 L 182.09375,92.25 L 177.65625,91.71875 z M 201,91.90625 L 197.09375,92.25 C 194.85126,96.456621 192.15094,100.88757 187.5625,104.625 L 187.375,106.375 L 190.5625,106.5625 C 195.87056,104.6636 200.97946,102.21978 204.875,98.4375 L 202.59375,96.125 C 200.74892,98.001547 198.7033,99.77144 195,100.71875 L 195.5,99.84375 L 201,91.90625 z M 195.15625,92.96875 L 190.21875,93.125 C 187.85063,97.607005 184.19511,101.55546 178.53125,104.625 L 181.03125,107.28125 C 187.97783,103.46508 191.39553,98.150288 195.15625,92.96875 z M 154.6875,96.84375 L 152.5625,100.1875 L 161.5625,100.1875 L 163.875,97.03125 L 154.6875,96.84375 z M 224.6875,96.9375 L 222.5625,100.28125 L 231.5625,100.28125 L 233.875,97.09375 L 224.6875,96.9375 z "
       style="fill:#ff0000;fill-opacity:1;fill-rule:evenodd;stroke:none;stroke-width:1px;stroke-linecap:butt;stroke-linejoin:miter;stroke-opacity:1"
       id="path4216" />
  </g>
</svg>
